<?xml version="1.0" encoding="UTF-8" standalone="no"?>
<!-- Created with Inkscape (http://www.inkscape.org/) -->

<svg
   width="104.67298mm"
   height="117.62799mm"
   viewBox="0 0 104.67298 117.62799"
   version="1.1"
   id="svg5"
   xml:space="preserve"
   inkscape:version="1.2.2 (b0a8486541, 2022-12-01)"
   sodipodi:docname="snipzy_logo.svg"
   xmlns:inkscape="http://www.inkscape.org/namespaces/inkscape"
   xmlns:sodipodi="http://sodipodi.sourceforge.net/DTD/sodipodi-0.dtd"
   xmlns="http://www.w3.org/2000/svg"
   xmlns:svg="http://www.w3.org/2000/svg"><sodipodi:namedview
     id="namedview7"
     pagecolor="#505050"
     bordercolor="#ffffff"
     borderopacity="1"
     inkscape:showpageshadow="0"
     inkscape:pageopacity="0"
     inkscape:pagecheckerboard="1"
     inkscape:deskcolor="#505050"
     inkscape:document-units="mm"
     showgrid="false"
     inkscape:zoom="0.54425795"
     inkscape:cx="138.72099"
     inkscape:cy="911.33258"
     inkscape:window-width="1900"
     inkscape:window-height="984"
     inkscape:window-x="0"
     inkscape:window-y="0"
     inkscape:window-maximized="0"
     inkscape:current-layer="layer1" /><defs
     id="defs2" /><g
     inkscape:label="Layer 1"
     inkscape:groupmode="layer"
     id="layer1"
     transform="translate(-85.600535,-169.7427)"><g
       id="g10228"><rect
         style="fill:#ffffff;fill-opacity:1;stroke-width:1.073"
         id="rect10171"
         width="62.124752"
         height="28.700056"
         x="108.44629"
         y="200.5567" /></g><g
       id="g10112"
       transform="translate(1.2913438,78.34038)"
       inkscape:export-filename="snipzy_logo.png"
       inkscape:export-xdpi="96"
       inkscape:export-ydpi="96"><path
         style="fill:#000000;stroke-width:0.184945"
         d="m 129.81939,208.84582 c -4.94678,-0.30849 -9.59313,-0.81329 -14.14832,-1.53713 -1.88181,-0.29902 -4.33696,-0.63305 -5.45588,-0.74227 -2.67003,-0.26064 -4.0772,-0.62433 -6.12719,-1.58361 -3.42916,-1.60465 -5.815407,-3.98908 -7.379077,-7.37344 -1.0979,-2.37625 -1.4261,-3.94017 -1.5193,-7.23971 -0.0696,-2.46524 -0.0159,-3.36052 0.32204,-5.36342 0.96089,-5.6954 3.03692,-10.5687 6.656067,-15.62454 l 1.4652,-2.04684 -1.12506,-0.68896 c -7.062617,-4.32492 -12.998617,-10.03372 -16.908317,-16.26115 -1.83285,-2.9194 -1.75472,-3.75158 0.50153,-5.3416 2.90185,-2.04499 4.41518,-4.30444 5.62614,-8.40003 0.69532,-2.35165 1.3217,-4.0504 2.20153,-5.97062 0.4853,-1.05917 0.4867,-1.07446 0.14374,-1.57204 -2.50827,-3.63911 -5.13727,-11.85254 -5.78466,-18.07226 -0.31054,-2.98352 -0.26833,-8.13802 0.0856,-10.44941 1.20166,-7.847972 3.06203,-9.874711 8.2434,-8.980552 3.498557,0.60375 8.510057,3.08864 12.673637,6.28406 2.47517,1.89961 6.77199,5.975662 8.73385,8.285092 l 0.58407,0.68756 1.34671,-0.55534 c 7.31152,-3.01503 15.82719,-3.88914 24.38251,-2.50279 3.11886,0.50539 9.20239,2.37781 10.12748,3.11708 0.17092,0.13659 0.43664,-0.0541 0.99838,-0.71644 1.34925,-1.5909 6.11503,-6.228702 7.73856,-7.530742 5.27254,-4.22847 11.27299,-7.10747 15.0121,-7.202769 3.42874,-0.0874 4.8818,1.258699 5.97851,5.538299 0.82812,3.231512 1.00538,5.113782 0.93772,9.957152 -0.0496,3.55042 -0.14373,4.90133 -0.47032,6.75051 -1.00609,5.69658 -3.06702,11.73758 -5.07549,14.87733 l -0.66362,1.0374 0.43799,0.87377 c 0.56288,1.12292 1.7553,4.35704 2.60553,7.06683 1.08822,3.46828 2.65086,5.68837 5.22773,7.42723 2.12185,1.4318 2.28825,2.37137 0.86398,4.87823 -2.23321,3.93066 -7.00842,9.36789 -11.01113,12.5377 -1.55498,1.23141 -6.54494,4.62201 -7.08505,4.81418 -0.10666,0.0379 0.0111,0.34811 0.26422,0.69603 2.74315,3.77022 3.71742,5.3558 4.986,8.11448 1.69256,3.68067 2.62175,7.24246 2.97838,11.41681 0.73755,8.63299 -2.8469,15.19905 -9.80808,17.96662 -1.75454,0.69756 -3.56815,1.06918 -6.38062,1.30745 -1.22064,0.10342 -3.42611,0.39908 -4.90105,0.65702 -7.9339,1.38754 -18.9949,1.98149 -27.27943,1.46483 z m 15.48425,-3.49725 c 2.00625,-0.15206 4.54463,-0.39502 5.64083,-0.53992 3.75673,-0.49658 5.23541,-0.73553 5.17744,-0.83668 -1.18666,-2.07035 -1.60687,-4.02473 -1.27787,-5.94331 0.37216,-2.17026 0.95902,-3.10947 3.74798,-5.99824 1.80989,-1.87465 2.66142,-2.90781 3.0516,-3.7025 0.52505,-1.06937 0.54143,-1.18645 0.54892,-3.9238 0.008,-3.05273 0.0621,-3.23092 1.04641,-3.47214 0.71831,-0.17603 1.32788,0.5144 1.79801,2.0365 0.82241,2.66265 0.23688,5.57058 -1.68665,8.37641 -0.29795,0.43462 -1.4029,1.69198 -2.45544,2.79412 -2.31086,2.41977 -2.93688,3.51278 -2.92567,5.10809 0.0131,1.86352 0.81364,3.07272 2.4077,3.63678 1.13204,0.40058 3.79917,0.3059 5.40639,-0.19191 4.85037,-1.50233 7.55789,-4.37656 8.73291,-9.27064 0.28798,-1.19946 0.37691,-2.1857 0.37523,-4.16127 -0.005,-6.26788 -2.31543,-12.53417 -6.90051,-18.71798 l -1.26271,-1.70301 -1.34697,0.61288 c -4.27845,1.9467 -10.60376,3.5525 -11.53751,2.92902 -0.31785,-0.21224 -0.62876,-0.89941 -0.62876,-1.38967 0,-0.67924 0.48173,-0.97443 2.46569,-1.5109 8.20131,-2.21768 14.96582,-5.79657 21.02237,-11.12228 3.30552,-2.90666 5.25958,-5.15002 7.54936,-8.66711 l 1.19806,-1.8402 -0.62719,-0.47161 c -3.1674,-2.38173 -5.00093,-5.21614 -6.16732,-9.53394 -0.68356,-2.53047 -1.30139,-4.23612 -2.39868,-6.62204 -0.36515,-0.79396 -0.66389,-1.62622 -0.66386,-1.84945 2e-5,-0.22324 0.25053,-0.86362 0.5567,-1.42308 3.89574,-7.11882 5.77929,-14.20894 5.79759,-21.82354 0.0108,-4.49756 -1.02669,-10.165322 -2.02282,-11.050482 -1.70046,-1.51105 -8.67478,1.44952 -14.65307,6.220162 -1.98371,1.58299 -5.12148,4.62055 -7.80929,7.55988 -1.84137,2.0137 -1.97598,2.04932 -4.08278,1.08064 -1.7098,-0.78614 -5.48345,-1.99565 -7.77639,-2.49243 -8.45918,-1.83275 -17.48947,-1.00735 -25.25167,2.30808 -1.04666,0.44706 -2.04943,0.81229 -2.22837,0.81162 -0.53762,-0.002 -1.2058,-0.5638 -2.63822,-2.21813 -4.46119,-5.15231 -9.56443,-9.253392 -14.5043,-11.656002 -3.757907,-1.82773 -6.370917,-2.45081 -7.413417,-1.76774 -0.58075,0.38052 -0.72444,0.73267 -1.39906,3.42877 -1.52606,6.098842 -1.01281,13.918332 1.4099,21.480262 0.69635,2.17349 2.52726,6.20348 3.68196,8.10432 0.36089,0.5941 0.65616,1.22891 0.65616,1.41069 0,0.18179 -0.4188,1.23175 -0.93066,2.33325 -0.51187,1.1015 -1.18415,2.81445 -1.49395,3.80656 -0.30981,0.9921 -0.84511,2.69966 -1.18956,3.79457 -0.34445,1.09491 -0.97686,2.59297 -1.40535,3.32902 -0.75771,1.30157 -3.05166,3.79489 -4.40614,4.7891 l -0.64077,0.47033 0.82571,1.27352 c 2.19942,3.39224 5.43692,6.98614 8.91985,9.90178 5.683127,4.75749 11.933957,7.96576 19.806877,10.16598 1.67526,0.46818 2.25923,0.71318 2.47126,1.03679 0.388,0.59215 0.16768,1.63515 -0.42783,2.02534 -0.43407,0.28442 -0.6027,0.27199 -2.81177,-0.20722 -2.70603,-0.58702 -5.63158,-1.49173 -8.1497,-2.52024 -0.96618,-0.39463 -1.76943,-0.69771 -1.785,-0.67351 -0.0156,0.0242 -0.54729,0.73309 -1.18159,1.5753 -3.52622,4.68203 -5.832687,9.79775 -6.697187,14.85425 -0.32263,1.8871 -0.37413,2.75315 -0.29036,4.88317 0.11655,2.96333 0.38554,4.14119 1.45393,6.36635 1.047497,2.18167 2.977077,4.11141 5.159377,5.15981 3.50575,1.68419 6.97588,1.94682 8.90418,0.67388 1.01473,-0.66986 1.338,-1.40325 1.34232,-3.04524 0.005,-1.85528 -0.516,-2.78181 -3.06088,-5.44472 -2.21165,-2.31422 -2.86652,-3.20493 -3.61469,-4.91641 -0.4818,-1.10215 -0.52408,-1.38285 -0.52864,-3.50977 -0.005,-2.17679 0.0251,-2.36894 0.5103,-3.28978 0.59708,-1.13325 1.18804,-1.50195 1.89274,-1.18087 0.70589,0.32162 0.83644,0.90346 0.6259,2.78929 -0.21221,1.90069 -0.005,3.50921 0.60788,4.70977 0.20671,0.40519 1.31755,1.71602 2.46854,2.91296 3.69942,3.84714 4.35779,5.04462 4.35968,7.92953 0.001,1.60058 -0.19718,2.41737 -0.94005,3.87352 -0.22053,0.43227 -0.37435,0.80749 -0.34182,0.83382 0.25501,0.20638 9.02296,1.21472 12.63542,1.4531 2.8298,0.18674 12.04016,0.0956 15.2993,-0.15145 z m -12.31318,-7.38725 c -0.26915,-0.24944 -0.48936,-0.58851 -0.48936,-0.75349 0,-0.34851 6.35047,-19.30207 6.66274,-19.88555 0.29823,-0.55725 1.22753,-0.90799 1.89701,-0.71598 0.68736,0.19713 1.044,0.66249 1.05152,1.37208 0.01,0.93711 -6.27003,19.51633 -6.76353,20.00983 -0.59599,0.59599 -1.69986,0.5834 -2.35838,-0.0269 z m -5.87101,-4.72763 c -0.73046,-0.61179 -2.31518,-2.05781 -3.52159,-3.21336 -2.91401,-2.79116 -2.92582,-2.53744 0.25704,-5.51829 4.59724,-4.30545 4.35407,-4.11095 5.13969,-4.11095 0.93048,0 1.65705,0.64797 1.65705,1.47777 0,0.63214 -0.91838,1.63163 -3.83761,4.1765 -0.73747,0.64289 -1.34085,1.21896 -1.34085,1.28015 0,0.0612 0.87512,0.88731 1.94472,1.83584 2.64248,2.34335 3.23374,3.02245 3.23374,3.71408 0,0.7887 -0.72151,1.47062 -1.556,1.47062 -0.52177,0 -0.90694,-0.2168 -1.97619,-1.11236 z m 16.70446,0.82446 c -0.31733,-0.22227 -0.41104,-0.47079 -0.41104,-1.09011 0,-0.93864 0.0476,-0.99562 3.098,-3.70798 1.14397,-1.0172 2.07398,-1.89107 2.0667,-1.94193 -0.007,-0.0509 -0.77237,-0.75827 -1.70018,-1.57203 -3.46783,-3.04152 -3.46452,-3.03791 -3.46452,-3.78182 0,-1.15193 1.15774,-1.93621 2.23345,-1.51298 0.24654,0.097 1.92551,1.56021 3.73104,3.25157 2.63595,2.46928 3.28277,3.17069 3.28277,3.55977 0,0.52815 -0.48416,1.04345 -4.31567,4.5932 -1.20385,1.11532 -2.369,2.12893 -2.58924,2.25248 -0.55957,0.3139 -1.44433,0.29092 -1.93131,-0.0502 z m -13.26474,-34.72918 c -1.86222,-0.62058 -3.58693,-1.82169 -4.35511,-3.03299 -0.67073,-1.05763 -0.6845,-1.52011 -0.0671,-2.25381 0.76001,-0.90322 1.43788,-0.79466 2.64023,0.42282 1.26823,1.28418 2.37547,1.83782 3.71181,1.85597 1.22432,0.0166 2.19005,-0.46292 2.58794,-1.28512 0.1452,-0.30002 0.30002,-1.16969 0.34406,-1.93259 l 0.0801,-1.38709 -1.3269,-0.63197 c -3.11759,-1.48481 -4.71265,-4.29515 -3.47625,-6.12479 1.22721,-1.81605 6.16364,-2.58472 9.59164,-1.49356 1.93878,0.61713 2.76644,1.50057 2.78679,2.97459 0.0217,1.57 -1.97676,3.96534 -4.04352,4.84661 l -1.00638,0.42912 0.0578,1.51238 c 0.0452,1.18282 0.14198,1.62612 0.44428,2.03439 0.53821,0.72688 1.30434,1.0713 2.38766,1.07338 1.21889,0.002 2.39856,-0.60899 3.61764,-1.87475 0.81579,-0.84701 1.05045,-0.98842 1.64029,-0.98842 0.48599,0 0.80997,0.1295 1.10219,0.44055 1.19809,1.27532 -0.33502,3.50527 -3.41149,4.96209 -1.17138,0.55469 -1.43839,0.60808 -3.04111,0.60808 -1.53106,0 -1.89986,-0.0661 -2.8682,-0.5138 l -1.11122,-0.5138 -1.20059,0.49084 c -1.44615,0.59123 -3.90256,0.77572 -5.08445,0.38187 z m -13.59348,-12.01571 c -1.08433,-0.30912 -1.30488,-0.44314 -2.31745,-1.40818 -1.1887,-1.13291 -1.90967,-2.65121 -2.16496,-4.55923 -0.65352,-4.88435 2.03845,-9.01942 5.8695,-9.01602 2.62137,0.002 4.97974,2.33555 5.6576,5.59727 0.309,1.48687 0.12466,4.13588 -0.37841,5.43761 -1.15196,2.98077 -4.04667,4.69536 -6.66628,3.94855 z m 4.08302,-8.62152 c 0.95356,-0.95356 0.63944,-2.53142 -0.60841,-3.0561 -0.75755,-0.31852 -1.36033,-0.15806 -1.9244,0.51231 -0.40683,0.48349 -0.46577,0.69805 -0.38606,1.40528 0.18216,1.61611 1.80736,2.25002 2.91887,1.13851 z m 32.31786,8.58187 c -1.08583,-0.34777 -2.67898,-1.77756 -3.34582,-3.00278 -2.20545,-4.05213 -0.57984,-10.05619 3.15207,-11.64186 1.73206,-0.73594 4.02254,-0.13338 5.50092,1.44713 1.57574,1.68459 2.22859,3.7483 2.08068,6.57718 -0.0769,1.47105 -0.18006,1.89053 -0.7707,3.13425 -0.3832,0.8069 -0.99387,1.73266 -1.39406,2.11335 -1.46346,1.39216 -3.49517,1.92613 -5.22309,1.37273 z m 3.61888,-8.21826 c 1.05718,-0.40194 1.35519,-2.06474 0.5295,-2.95439 -1.1788,-1.27009 -3.00536,-0.52211 -3.00536,1.2307 0,0.65914 0.10577,0.92524 0.54061,1.36008 0.56432,0.56432 1.12852,0.67033 1.93525,0.36361 z m -55.54831,-16.92314 c -0.95422,-1.01572 -0.006,-2.67842 3.66451,-6.42738 l 2.48332,-2.53624 -1.3022,-1.53256 c -1.97507,-2.32444 -4.56596,-4.56606 -7.545187,-6.52803 -1.6662,-1.09729 -1.79347,-1.32392 -1.29008,-2.29738 0.69282,-1.33976 2.565357,-0.74308 6.202127,1.97631 2.0999,1.5702 4.14259,3.46806 5.72225,5.31654 1.86345,2.18056 2.04545,2.46471 2.04545,3.19349 0,0.54647 -0.28125,0.88742 -2.543,3.08273 -1.39865,1.35756 -3.08396,3.11603 -3.74514,3.9077 -0.66118,0.79167 -1.38562,1.63301 -1.60986,1.86964 -0.56004,0.59098 -1.51437,0.5796 -2.08219,-0.0248 z m 67.92497,-0.59512 c -2.00713,-2.37064 -2.97259,-3.40267 -5.18539,-5.54286 -2.24735,-2.17361 -2.31904,-2.26688 -2.20001,-2.86206 0.15478,-0.77389 0.64596,-1.48174 2.51839,-3.6293 1.83756,-2.10756 3.93291,-3.92687 6.46535,-5.6136 2.26687,-1.50985 3.7018,-2.03248 4.44171,-1.61777 0.55848,0.31302 0.98023,1.1078 0.81557,1.53691 -0.0649,0.16904 -0.87689,0.81468 -1.80448,1.43475 -2.88749,1.93021 -5.59327,4.28131 -7.42439,6.45119 l -1.22802,1.4552 1.61808,1.52856 c 0.88994,0.84071 1.69361,1.50569 1.78593,1.47774 0.0923,-0.028 0.12044,0.0259 0.0625,0.11966 -0.058,0.0938 0.25373,0.57437 0.69264,1.06801 1.19349,1.34236 1.9393,2.51777 2.18832,3.44881 0.1926,0.72011 0.18008,0.89843 -0.0923,1.31406 -0.25061,0.38249 -0.4634,0.48088 -1.03994,0.48088 -0.65369,0 -0.81216,-0.10311 -1.61401,-1.05018 z"
         id="path1802"
         sodipodi:nodetypes="sssssscscssssssscssscsssssssssscsssssscssssssssscssscsssssssscscsssssscsssscsssssssssssssssssssscsssssssssssssscsscssscscsssssssscssssssssssssssssscsssssssssssssssscssssscsscsssssscsssssscssssssssssssssssssssssccssssssssssscsssssssscscssscscc" /><g
         id="g10102"
         transform="matrix(1.0170174,0,0,1.0170174,20.070575,-2.675389)"><path
           style="fill:#f57e32;fill-opacity:1;stroke-width:1.97149"
           d="m 92.905152,149.56799 c -2.172226,-3.31523 -10.064504,-3.46097 -11.800144,-0.2179 -0.461335,0.86202 -0.998574,1.01343 -3.595865,1.01343 -3.134561,0 -7.811571,-0.70435 -9.867566,-1.48604 l -1.158941,-0.44063 1.994897,-2.0556 c 2.34092,-2.41216 3.453572,-4.44838 4.605761,-8.42883 0.462042,-1.5962 1.353627,-4.02889 1.981303,-5.40598 l 1.14123,-2.5038 -2.163096,-4.56634 c -3.887769,-8.20716 -5.447016,-18.13662 -3.951221,-25.16182 1.04231,-4.895334 1.494644,-5.298112 4.781537,-4.25767 4.61378,1.460458 9.905383,5.00233 15.287101,10.23223 2.796177,2.71729 5.167542,5.02011 5.269701,5.11736 0.102158,0.0973 2.026385,-0.4892 4.27606,-1.30323 5.335101,-1.93046 9.026841,-2.56886 14.815641,-2.56198 5.30556,0.006 10.06173,0.86536 14.9244,2.69567 1.80576,0.67968 3.48967,1.23579 3.74203,1.23579 0.25236,0 3.03184,-2.46107 6.17659,-5.46903 6.11659,-5.85054 9.36157,-8.080357 14.12709,-9.707534 3.7497,-1.280334 4.11493,-0.997267 5.18485,4.018394 1.52128,7.13144 0.1365,16.32645 -3.7533,24.92196 l -2.02115,4.4663 0.83143,2.18761 c 0.45725,1.20319 1.32765,3.71937 1.93421,5.59152 1.50286,4.63871 2.48322,6.45907 4.73837,8.79853 l 1.92175,1.99358 -3.04507,0.8544 c -1.67478,0.46992 -4.72755,0.96972 -6.78394,1.11067 l -3.73888,0.25626 -1.43817,-1.60959 c -1.26148,-1.41183 -1.79583,-1.63546 -4.3493,-1.82016 -3.2934,-0.23823 -5.45907,0.58672 -6.76249,2.57598 -0.6963,1.06269 -1.02147,1.16641 -2.79984,0.89308 -2.98329,-0.45852 -5.9617,-1.7347 -10.80313,-4.62887 -4.28087,-2.55908 -4.38284,-2.59106 -8.2237,-2.57973 -3.63389,0.0107 -4.06454,0.12604 -6.56284,1.75727 -4.06126,2.65176 -8.224374,4.61221 -11.083522,5.21934 -1.416878,0.30086 -2.669712,0.54702 -2.784076,0.54702 -0.11436,0 -0.585832,-0.57674 -1.04771,-1.28166 z m 6.449229,-2.34671 c 1.851059,-1.21286 2.834769,-3.58073 2.834769,-6.82355 0,-3.46798 -1.0351,-5.70945 -3.264275,-7.06865 -4.33611,-2.64388 -9.091445,1.0287 -9.091445,7.02139 0,3.5192 1.6344,6.53606 4.132154,7.62735 1.283919,0.56096 3.949086,0.18679 5.388797,-0.75654 z m 36.225459,0.0942 c 5.49069,-3.66802 3.87689,-14.00435 -2.30454,-14.76044 -3.9084,-0.47806 -6.69785,2.78817 -6.69785,7.84269 0,3.46798 1.0351,5.70945 3.26427,7.06865 2.04218,1.2452 3.71411,1.20123 5.73812,-0.1509 z M 81.721122,122.53224 c 0.648171,-0.6016 2.746052,-2.78566 4.661956,-4.85349 3.442975,-3.71598 3.475241,-3.77558 2.775982,-5.1278 -1.002269,-1.93817 -7.655081,-8.13581 -10.038639,-9.35181 -2.557639,-1.30481 -4.071765,-1.12794 -4.240373,0.49533 -0.101574,0.97789 0.383722,1.57845 2.483956,3.07389 1.435605,1.0222 3.647524,2.91171 4.915378,4.19892 l 2.305188,2.34038 -2.966133,3.53264 c -2.923489,3.48185 -3.528486,5.05666 -2.382771,6.20238 0.809366,0.80936 1.135666,0.74235 2.485456,-0.51044 z m 68.306958,-0.52172 c 0.18166,-1.58001 -0.6781,-3.03158 -3.72505,-6.289 l -2.18688,-2.33795 1.90526,-1.96631 c 1.04791,-1.08147 3.21784,-2.95567 4.82209,-4.16489 1.60424,-1.20922 3.09816,-2.51588 3.3198,-2.90369 0.54266,-0.94944 -0.48448,-2.11262 -1.86552,-2.11262 -2.75397,0 -12.89225,8.96017 -12.86833,11.37297 0.0132,1.34245 8.5566,10.12274 9.64827,9.91594 0.45937,-0.087 0.85955,-0.72473 0.95036,-1.51445 z"
           id="path1875" /><path
           style="fill:#f57e32;fill-opacity:1;stroke-width:1.97149"
           d="m 86.105731,202.90081 c -2.535076,-0.62822 -5.737796,-2.77 -7.093492,-4.7437 -3.986377,-5.80359 -2.645138,-16.02337 3.270771,-24.92217 1.749229,-2.63122 2.512076,-3.40683 3.110957,-3.16302 0.436394,0.17766 1.996631,0.74044 3.46719,1.25063 1.470562,0.51018 2.928432,1.02055 3.239715,1.13415 0.40028,0.14608 0.223353,1.28544 -0.604385,3.892 -0.643692,2.027 -1.332511,4.93965 -1.530708,6.47256 l -0.360357,2.78711 -0.2506,-2.18761 c -0.514921,-4.49506 -3.910528,-2.28599 -3.885938,2.52807 0.01445,2.82648 1.289119,5.37753 4.548484,9.10298 2.962963,3.38666 3.530835,5.48923 1.88214,6.9687 -1.074081,0.96384 -3.79091,1.37663 -5.793777,0.8803 z"
           id="path1877" /><path
           style="fill:#f57e32;fill-opacity:1;stroke-width:1.97149"
           d="m 138.44703,202.92925 c -1.49371,-0.42677 -2.56763,-2.50803 -2.15091,-4.16841 0.17061,-0.6797 1.51749,-2.58889 2.9931,-4.24264 1.47561,-1.65375 2.98358,-3.72637 3.35106,-4.60583 1.64195,-3.92977 0.16467,-10.00822 -2.09672,-8.62724 -0.48467,0.29597 -1.00132,1.17102 -1.14816,1.94455 -0.22643,1.19287 -0.32134,1.01809 -0.62511,-1.15106 -0.19698,-1.40661 -0.80314,-3.9982 -1.34702,-5.75907 -0.54387,-1.76088 -0.91887,-3.26703 -0.8333,-3.347 0.0856,-0.08 1.85616,-0.80311 3.93464,-1.60697 l 3.77907,-1.46156 1.15584,1.53241 c 7.71085,10.22301 8.93352,23.43703 2.65816,28.72802 -2.75114,2.31957 -6.98873,3.53108 -9.67065,2.7648 z"
           id="path1879" /><path
           style="fill:#fce6c2;fill-opacity:1;stroke-width:1.97149"
           d="m 108.06353,205.50163 c -1.33688,-0.0957 -4.57524,-0.42575 -7.19637,-0.73355 l -4.765704,-0.55963 0.352214,-1.52187 c 0.583049,-2.51927 0.259926,-5.66275 -0.7488,-7.28466 -0.523097,-0.84108 -1.948784,-2.50452 -3.168195,-3.69653 -1.957628,-1.91365 -2.217111,-2.41388 -2.217111,-4.27419 0,-2.52933 1.133793,-8.22875 2.346958,-11.79782 l 0.879988,-2.58888 2.154081,-0.0378 c 2.057736,-0.0361 2.154082,-0.10264 2.154082,-1.48676 0,-1.40516 -0.15417,-1.50155 -5.104429,-3.19166 -7.70341,-2.63007 -12.867386,-5.53628 -18.17085,-10.22627 -2.493473,-2.20504 -8.386367,-8.86337 -8.077423,-9.17232 0.0994,-0.0994 1.88014,0.14442 3.95719,0.54183 2.077051,0.3974 4.874223,0.72255 6.215938,0.72255 2.028256,0 3.701191,1.34826 4.502378,2.3668 1.384922,1.76065 3.416173,2.66404 5.990024,2.66404 2.602286,0 3.866011,-1.80001 5.683924,-3.74007 0.882607,-0.94192 1.788279,-1.39746 2.778291,-1.39746 2.063787,0 5.632604,-1.28295 8.942424,-3.21471 1.55173,-0.90566 2.91898,-1.64665 3.03835,-1.64665 0.11936,0 0.21702,0.50598 0.21702,1.12439 0,1.15471 1.8208,4.43149 3.7605,5.42925 0.73491,0.37803 1.09381,1.00366 1.09381,1.90672 0,2.85717 -2.68381,3.36239 -5.59056,1.05239 -1.00934,-0.80212 -2.00118,-2.70685 -2.21269,-2.70685 -0.62348,0 -1.91947,2.72111 -1.91947,3.43348 0,1.2427 2.46149,3.57995 4.65079,4.41605 1.86509,0.71228 2.57078,0.75314 4.72601,0.27365 1.77099,-0.39401 3.04456,-0.41606 4.23143,-0.0733 2.86388,0.82712 6.6678,-0.42328 8.63249,-2.8376 0.8764,-1.07697 0.74689,-2.88577 -0.24308,-3.39493 -1.05621,-0.54324 -1.92209,-0.25999 -3.68331,1.20491 -2.28145,1.89761 -4.48223,1.424 -4.9665,-1.0688 -0.24794,-1.27626 -0.0776,-1.54134 1.54684,-2.40651 1.12823,-0.60094 2.20662,-1.72099 2.8235,-2.93264 l 0.95962,-3.28384 4.94272,2.74067 c 2.7459,1.52257 4.7633,2.17545 6.57779,2.36272 2.24795,0.23201 2.36442,1.19415 2.81067,2.17354 1.53429,3.36742 9.98573,2.08824 11.51941,-1.27802 0.48154,-1.05687 0.92511,-1.20265 4.49786,-1.47835 2.17998,-0.16823 5.1665,-0.61846 6.63671,-1.00052 1.47021,-0.38207 2.7355,-0.63226 2.81178,-0.55598 0.27508,0.27508 -3.76194,6.64468 -6.41746,9.1993 -5.15736,4.9614 -11.81026,8.73179 -20.36445,11.54115 -3.80756,1.25048 -4.02965,1.39975 -3.88908,2.61399 0.1347,1.16354 0.36891,1.30195 2.42758,1.43469 2.24668,0.14487 2.28917,0.17898 3.04046,2.44093 1.17861,3.5485 2.19839,8.83365 2.20771,11.44194 0.008,2.17075 -0.19498,2.58507 -2.4977,5.10442 -1.3784,1.50805 -2.8235,3.50133 -3.2114,4.42951 -0.68371,1.6361 -0.63572,5.13094 0.0944,6.87434 0.27873,0.6656 -0.31708,0.86517 -3.95177,1.3237 -4.69066,0.59174 -16.96033,1.04638 -20.80862,0.77104 z m 5.26894,-6.75848 c 0.39605,-0.39606 2.19578,-5.20009 3.9994,-10.67564 3.50753,-10.64841 3.56818,-11.45265 0.86371,-11.45265 -0.92453,0 -1.36864,0.45621 -2.09606,2.15318 -0.79243,1.84867 -6.33451,18.45525 -6.33451,18.98106 0,0.46466 1.5946,1.71414 2.18761,1.71414 0.36286,0 0.9838,-0.32404 1.37985,-0.72009 z m -4.6193,-5.05423 c 0.12017,-0.84969 -0.45471,-1.78368 -2.16934,-3.52449 l -2.33284,-2.36845 2.35384,-2.38977 c 1.96974,-1.99981 2.30239,-2.59477 2.03854,-3.64602 -0.57436,-2.28843 -2.51466,-1.68114 -6.49501,2.03288 -1.93847,1.80876 -3.524485,3.6042 -3.524485,3.98986 0,0.38566 1.586015,2.19025 3.524485,4.0102 2.93299,2.75366 3.76925,3.28741 4.9829,3.18041 1.11942,-0.0987 1.49641,-0.39729 1.62191,-1.28462 z m 18.54362,-1.81967 c 1.87664,-1.77032 3.41207,-3.5939 3.41207,-4.0524 0,-0.45849 -1.52569,-2.30654 -3.3904,-4.10677 -2.7736,-2.67768 -3.63588,-3.24494 -4.73982,-3.11811 -1.08003,0.12409 -1.38134,0.43423 -1.50921,1.5535 -0.13137,1.14993 0.25741,1.7763 2.18762,3.52449 l 2.34736,2.12602 -2.30912,2.09238 c -1.59462,1.44491 -2.30915,2.47286 -2.30915,3.32193 0,3.0234 2.17379,2.56146 6.31065,-1.34104 z"
           id="path6640"
           sodipodi:nodetypes="cscssssscsssssssssssssssssssssssssssscsssssssssssscssssccssssssssscssssssssssssscsss" /><path
           style="fill:#f9a87b;fill-opacity:1;stroke-width:2.54749"
           d="m 83.650137,154.92024 c -1.442902,-0.74107 -3.026666,-1.97577 -3.519473,-2.74377 -0.823164,-1.28285 -0.745172,-1.54721 0.959303,-3.25168 1.037168,-1.03717 2.878469,-2.04727 4.175518,-2.29059 3.081504,-0.57809 7.753627,1.17601 8.707288,3.26908 0.6107,1.34034 0.460896,1.76856 -1.199538,3.429 -2.744508,2.74452 -5.826676,3.281 -9.123098,1.58796 z"
           id="path10092" /><path
           style="fill:#f9a87b;fill-opacity:1;stroke-width:2.62409"
           d="m 137.99773,154.97617 c -4.05878,-1.8261 -4.63908,-4.35219 -1.55675,-6.77675 4.75082,-3.73698 14.32144,-0.87795 12.82667,3.83169 -0.96462,3.03919 -7.35124,4.70815 -11.26992,2.94506 z"
           id="path10094" /></g></g></g></svg>
